<?xml version="1.0" encoding="utf-8"?>
<!-- Generator: Adobe Illustrator 23.0.5, SVG Export Plug-In . SVG Version: 6.00 Build 0)  -->
<svg version="1.0" id="Layer_1" xmlns="http://www.w3.org/2000/svg" xmlns:xlink="http://www.w3.org/1999/xlink" x="0px" y="0px"
	 viewBox="0 0 800 800" style="enable-background:new 0 0 800 800;" xml:space="preserve">
<style type="text/css">
	.st0{fill:#F19300;}
</style>
<path class="st0" d="M696.4026489,523.2191162c-0.4810791,0-0.9620361,0-1.4431152,0
	c-1.8973999-1.4697266-1.6960449-3.6013184-1.7088623-5.6240845c-0.0626221-9.8596497,0.0133057-19.7198181-0.0650024-29.5791016
	c-0.010376-1.2994995,0.7553711-3.4535217-1.0670166-3.6748962c-1.7993164-0.2185669-2.6346436,1.7771301-3.184021,3.402832
	c-0.3078003,0.9107056-0.2299194,1.9110107-0.4454346,2.8460999c-0.7927246,3.4390259-3.8719482,4.9751892-6.8334961,3.0379333
	c-2.6719971-1.7478027-5.1378784-1.4674988-7.8758545-0.5506592c-12.6553955,4.237854-25.3184814,8.4527588-37.9817505,12.6671143
	c-1.824585,0.6072388-3.6286011,1.2996521-5.5170898,1.6814575c-3.0054321,0.607666-4.3207397-0.3011475-4.7012939-3.3058777
	c-0.3179321-2.5099792-0.1329956-5.0448303-0.1951904-7.5680542c-0.1119385-4.5421448-0.9790039-5.4707642-5.5932617-5.4840088
	c-20.0802612-0.0574951-40.1650391-0.2557373-60.2385254,0.1117249c-6.5275879,0.1194763-11.3788452-1.5575867-15.769104-6.4883118
	c-5.9068604-6.6339722-12.4749146-12.6815491-18.7945557-18.9453125c-0.7394409-0.7329102-1.4588013-1.9664307-2.631897-1.5666199
	c-1.4693604,0.5007629-0.9637451,2.0415039-0.9681396,3.1569519c-0.0484009,12.2644958-0.0199585,24.5292053-0.0323486,36.7938843
	c-0.0018311,1.8031006-0.0021362,3.6056213-0.1706543,5.4056396c-0.2112427,2.2572021-1.4074097,3.4738159-3.6700439,3.6915894
	c-1.5595093,0.1500854-3.1207886,0.1761475-4.6836548,0.1766357c-38.2368469,0.0114746-76.4737244,0.0174561-114.7106323-0.00354
	c-8.4024353-0.0046387-8.6214294-0.2613525-8.6636047-8.7723694c-0.0137329-2.7655334,0.0196838-5.5313416-0.0152283-8.2966309
	c-0.0645752-5.1180725-0.8417664-5.9102783-5.8206787-6.0003052c-0.8415222-0.0152283-1.6833496-0.0089417-2.5250549-0.0089722
	c-70.4617004-0.0006104-140.9233551-0.0021362-211.3850403,0.0015869c-8.2692413,0.0004578-8.3853302,0.1313171-8.4023438,8.5401306
	c-0.0051117,2.5246582,0.0834198,5.0530701-0.1055145,7.5727234c-0.2676086,3.5688171-1.0989685,4.3995667-4.6004639,4.7025452
	c-1.4385071,0.1244507-2.8835602,0.1023865-4.3263397,0.1029358c-17.0743408,0.0068359-34.1486664,0.0077209-51.2229919-0.0006409
	c-1.5629578-0.0007629-3.1242142-0.0360413-4.6860886-0.1329346c-2.6028671-0.1615906-3.9063644-1.5189514-4.0548019-4.1112366
	c-0.2408676-4.2062378-0.057106-8.4155273-0.1518784-12.6220093c-0.1020813-4.5298462-0.9883423-5.4562988-5.6032639-5.4736633
	c-15.3908081-0.0579224-30.7818336-0.015564-46.1727715-0.024353c-1.8035202-0.0010071-3.6091957,0.04422-5.4096718-0.0686646
	c-3.6795273-0.2307129-4.1888905-0.7199707-4.1894016-4.2962646c-0.0097504-68.177063,0.0058517-136.354187-0.0584412-204.531189
	c-0.0023746-2.5177307,0.6926975-3.2366333,3.2183857-3.2234497c19.1179199,0.099823,38.2366028,0.0463257,57.3550339,0.0619202
	c3.5391998,0.0028687,4.1143494,0.5236511,4.2625732,4.203064c0.2178116,5.4068909,0.0434723,10.8204956,0.0935898,16.230896
	c0.0514221,5.5511169,0.753891,6.2990112,6.2215271,6.3105774c17.0742798,0.0361633,34.148674-0.0169067,51.2229385,0.0269775
	c7.7760315,0.0199585,8.1422119,0.4153748,8.1995392,8.1641235c0.0329132,4.448822-0.0281372,8.8981934,0.0246124,13.3467102
	c0.0592499,4.9960938,0.8988953,5.8651428,5.9432678,5.8753052c20.9220123,0.0420837,41.8448029-0.0883789,62.7659149,0.0552673
	c12.913208,0.0886841,10.0322266-1.7809753,17.5055084,9.8545837c6.7554779,10.5179749,13.4420776,21.0803223,20.0870056,31.6688538
	c0.5599976,0.892334,1.0054932,1.9237976,2.6116028,2.5964355c-0.0300903-6.1929016,1.2148743-11.9976196-3.2241821-17.4769592
	c-13.3927002-16.531189-13.9823761-39.24646-1.243988-56.2139282c17.5183105-23.3342285,47.627594-24.9303589,67.7801514-9.0402832
	c2.8644104,2.2585449,5.3981018,4.779541,7.5470886,7.6875305c1.8869629,2.5534363,4.3402405,3.5031433,7.4749451,3.4889221
	c11.7832947-0.0533752,23.5671997-0.033905,35.3508911-0.0172119c1.0821533,0.0015564,2.1647034-0.0010986,3.2459717,0.0475464
	c4.7536621,0.2137756,5.5600281,0.9983521,5.7025757,5.8734436c0.161438,5.5216064-0.0133667,11.0480042,0.0960999,17.2538757
	c3.6371765-7.9893188,6.7626648-15.4997253,10.1512451-22.890564c1.8027954-3.9320984,3.2920837-8.0137634,5.4281616-11.7856445
	c1.9562073-3.4542542,4.0037231-3.4228516,6.0422363,0.009552c1.2325134,2.0752563,2.0834961,4.3443604,2.96698,6.5664063
	c1.4467773,3.6389465,3.8898315,5.0174866,7.7962036,4.9734802c12.6235657-0.1422729,25.2506714-0.1278992,37.8753357-0.0307617
	c11.4177246,0.0878601,9.2145996-1.1720581,14.6857605,9.1229858c6.3157349,11.8842773,12.2408447,23.9829102,18.4862976,35.910553
	c1.048645,2.0026855,1.5012817,4.9143982,4.7780762,4.5603027c2.7764282-0.3000488,6.756958-4.2056885,7.1798706-6.8764648
	c0.207428-1.3096924,0.1410828-2.639679,0.1436157-3.9616699c0.0206299-10.5812378-0.0505371-21.1627808,0.0342712-31.7436523
	c0.0502625-6.2625732,0.6951599-6.9641724,6.7804565-6.9939575c17.5549927-0.085968,35.1105347-0.0848083,52.6655273-0.0004272
	c5.9917603,0.0287781,6.6220093,0.7304993,6.7450562,6.6629944c0.0822754,3.9671631-0.0808716,7.9385376,0.0802002,11.9026184
	c0.133606,3.2873535,1.1235352,4.3840027,4.4042969,4.4150085c14.1875,0.1341248,28.3760986,0.1023254,42.5643311,0.0258789
	c3.0252686-0.0162964,4.2905884-1.6751099,4.3215332-4.5679932c0.0296631-2.76474,0.038208-5.5297241,0.1079102-8.2949524
	c0.0664673-2.6390076,1.2908325-4.2419128,3.7597656-5.0827942c2.0480347-0.6975098,4.0861816-1.4272156,6.1392822-2.1109009
	c19.8493652-6.6099548,39.6918945-13.2403259,59.5440063-19.842041c7.9908447-2.6572876,8.9229126-1.9639587,8.9776001,6.5884399
	c0.0546265,8.5317688-1.2385254,17.0306702-0.6782837,25.5683899c0.1358643,2.0701904-1.1239624,4.9016724,2.0526123,5.786499
	c2.3661499,0.6590576,7.1291504-2.1109009,8.0563354-4.4439087c1.1010132-2.7705383,0.994812-5.6998901,0.6333008-8.5518494
	c-0.6194458-4.8869629-1.1303711-9.7860413-1.7442017-14.6732483c-0.5493774-4.3739014-0.3395386-8.6526184,2.1308594-12.53479
	c1.7178345-2.6996155,3.2848511-3.0308838,5.942627-1.2212524c5.4394531,3.7036133,6.3580322,6.4240112,3.6644897,12.4657898
	c-2.9960327,6.7202148-1.3326416,13.1979675,0.6530151,19.6671448c0.7451172,2.4277954,2.7905273,2.2976074,4.7879028,1.6626587
	c5.6148682-1.7849426,11.1844482-3.707428,16.7791138-5.5539856c5.9371338-1.9595947,11.838623-4.0291443,17.8126831-5.8729248
	c1.6463623-0.5081482,3.473999-1.4152832,4.8479614,0.6312256c0.168396,7.3929138,0.0263062,14.7835999,0.0734253,22.1742859
	c0,23.2898865,0.1784668,46.5811768-0.0809937,69.8675842c-0.116394,10.4342957-0.2212524,20.8691406-0.2650757,31.3042603
	c-0.0058594,1.4116821-0.3052368,2.907196,0.7070313,4.1601257c0,2.8861694,0,5.7723694,0,8.6585388
	c-0.8167725,4.9908752-0.1435547,10.0175476-0.3609619,15.0214844c0,2.9571228,0,5.9156494,0,8.8707581
	c0.0613403,4.7901611-0.2350464,9.5768127-0.3126831,14.3640137c-0.1233521,7.6124878-3.6508789,13.5724487-8.8384399,18.5884705
	c-3.8747559,3.746582-8.3592529,6.7374268-13.6412964,8.452179c-13.0089722,4.2231445-25.9840698,8.5545044-38.921936,12.9899292
	C704.149231,521.9874878,700.1642456,522.0325928,696.4026489,523.2191162z"/>
<g>
	<path d="M146.8998566,315.1587219c-12.261322,0.1181946-24.5270538,0.1879272-36.7861786-0.0344849
		c-3.4071884-0.0616455-4.1242981,1.0011597-4.1015396,4.2079773c0.141655,19.8361206,0.0066071,39.6744385,0.1401901,59.5097961
		c0.0205536,3.0401917-0.5306778,4.3269043-3.8894196,4.0597229c-4.0619049-0.3237-8.1840057-0.2914124-12.2517853-0.0080872
		c-3.176712,0.2216797-4.0097885-0.7361755-3.9943771-3.9562073c0.1365204-28.8532104,0.0058746-57.7078552,0.1732178-86.5610657
		c0.021286-3.6112366-1.0510712-4.3055725-4.4076157-4.2512817c-12.5006027,0.2018738-25.0078163,0.2026062-37.5076866,0.0014954
		c-3.4644394-0.0550537-4.6358871,0.5989075-4.6124001,4.4303589c0.1864319,31.0169983,0.1042252,62.0354614,0.1049614,93.0539551
		c0,31.2577515,0.0433044,62.5169678-0.0697289,93.7747192c-0.0102768,3.0269775,0.8250046,3.806488,3.807209,3.7683105
		c12.8617325-0.1644287,25.7300682-0.209198,38.5895958,0.0212708c3.4725113,0.0624084,4.0868607-1.098053,4.0677795-4.243927
		c-0.1247787-21.5198975-0.0176163-43.0405273-0.1240463-64.5596619c-0.0139465-2.7715454,0.634903-3.8417053,3.569397-3.6699524
		c4.1932907,0.2451477,8.4276886,0.289917,12.6143723-0.0102844c3.2926865-0.2363586,3.9444733,0.9549255,3.9319916,4.0472107
		c-0.1196365,28.3731689-0.0278854,56.7463379-0.135788,85.1187744c-0.0102768,2.8662415,0.7934494,3.6061096,3.6090393,3.5723267
		c12.5013351-0.1497192,25.0063477-0.1262207,37.5091553-0.0132141c2.4522705,0.0227661,3.2838745-0.570282,3.2809448-3.1649475
		c-0.0690002-60.5932007-0.07341-121.1863708,0.011734-181.779541
		C150.4325562,315.6196899,149.4475403,315.1345215,146.8998566,315.1587219z"/>
	<path d="M561.4390259,360.5516968c1.4093018-1.4100037,2.3480835-2.747345,2.3267822-4.942688
		c-0.1174316-12.3817139-0.1512451-24.7663574,0.0146484-37.1473083c0.038208-2.8647766-0.9871826-3.3257141-3.5253296-3.3022156
		c-12.5020752,0.1152344-25.0063477,0.1269531-37.5076904-0.0073547c-2.6585083-0.0286255-3.5239258,0.6429749-3.4857178,3.3983765
		c0.1519165,10.9379272-0.0183716,21.8802795,0.1218262,32.8189697c0.0315552,2.4830933-0.8081055,3.9026184-2.8508301,5.2157288
		c-6.6712341,4.2894592-13.3050537,8.6508179-19.7641907,13.25c-2.6790466,1.9076538-3.8130798,1.8070984-5.4021606-1.306488
		c-8.6280823-16.9111633-17.5064392-33.695343-26.3077087-50.5177002c-0.7009583-1.3387756-1.098053-2.8442078-3.2192993-2.8339233
		c-14.0478516,0.0711975-28.0964355,0.0366821-42.7711487,0.0366821c0.8132629,1.8027039,1.3197327,2.9990845,1.8856506,4.1661377
		c14.1594238,29.1908264,28.3100281,58.3853455,42.5230408,87.5497437c1.0327148,2.1190491,1.5171509,4.1999207,1.5127563,6.5508728
		c-0.0469666,28.9728394,0.014679,57.9464111-0.0983582,86.9192505c-0.0117493,3.0020142,0.8117981,3.8240967,3.7932739,3.7859192
		c12.6209717-0.1614685,25.2471008-0.1761475,37.8680725,0.0073547c3.1157837,0.0455017,3.7147217-0.9718018,3.7037048-3.8666687
		c-0.1056824-28.2513123-0.0263977-56.5041199-0.1247559-84.7554321c-0.0088196-2.6408997,0.8029785-4.4318542,2.642334-6.2638855
		C529.0428467,393.1027527,545.2090454,376.7956543,561.4390259,360.5516968z"/>
	<path d="M625.7366943,335.841156c-12.8661499,0.1064148-25.7337646,0.1064148-38.5999146,0.0007324
		c-2.4199219-0.0198364-3.5869751,0.5181885-3.2735596,3.1502686c0.1834717,1.5413818,0.0322876,3.122406,0.0322876,4.6858215
		c0,30.5435791-0.0807495,61.0878906,0.1027832,91.6307373c0.0227051,3.8101501-1.1032104,4.7055969-4.6168213,4.4406433
		c-3.9459229-0.2972717-7.9439697-0.2657166-11.8950806-0.0051575c-3.0614624,0.2026062-3.796936-0.8653564-3.777832-3.8314209
		c0.128418-19.8405151,0.0755615-39.6824951,0.0454712-59.5237732c-0.0021973-1.2536316,0.3912354-2.5939026-0.4257202-3.8930664
		c-0.3566895,0.1783447-0.7045898,0.2649536-0.9335938,0.4785461
		c-13.887146,12.9667053-27.7529907,25.9546814-41.6599121,38.8986206c-1.197876,1.1141968-1.4312744,2.3656311-1.4268799,3.8681335
		c0.0286255,9.9808044,0.0440674,19.9623413-0.0161133,29.9424438c-0.0095825,1.6969604,0.5291748,2.9234619,1.720459,4.1228027
		c10.4204712,10.4960938,20.8035278,21.0296021,31.152771,31.5961304c1.1824951,1.207428,2.4024048,1.7190247,4.1052246,1.715332
		c23.0884399-0.0484314,46.1768799-0.0690002,69.2653198,0.0198364c2.5117188,0.0095215,3.2390747-0.6980286,3.2354126-3.222229
		c-0.0697021-47.0180054-0.0675049-94.0367737-0.0058594-141.0547791
		C628.7680664,336.5068665,628.0927734,335.8213196,625.7366943,335.841156z"/>
	<path d="M638.8634033,440.7226257c16.9727783-5.693573,33.9404907-11.4003601,50.9536743-16.9706116
		c2.31427-0.7574768,3.1781616-1.7380981,3.1634521-4.2659607c-0.057251-10.0967712,0.1981812-20.1950378,0.2224121-30.2932739
		c0.0043945-1.6867371,1.036377-3.9231873-0.8022461-4.9962769c-2.2628784-1.3204651-5.109314-2.5447693-7.5740356-1.6852722
		c-4.7247314,1.6470947-10.0623169,2.2951965-12.8742065,7.6871033c-1.6323853,3.1311951-4.4142456,5.6737671-6.7387695,8.4299011
		c-5.5959473,6.6360168-8.5040283,6.2594604-12.4074097-1.5964355c-0.4771118-0.9608154-0.7927246-2.0096741-1.1083374-3.0409241
		c-1.5134888-4.9404907-3.1693726-9.8450317-4.4604492-14.8427734c-2.0985107-8.1230774-7.1923828-14.6967163-10.9379272-22.5819702
		c-0.2092285,0.9130859-0.3413086,1.221344-0.342041,1.5296326c-0.1130371,26.9294128-0.1724854,53.8587952-0.3743286,80.7874756
		C635.55896,442.1517029,637.0004883,441.3472595,638.8634033,440.7226257z"/>
	<path d="M758.7211914,319.9208679c-12.3728638,4.27771-24.8294067,8.3124695-37.2294922,12.5123596
		c-3.4350586,1.1626282-6.6132202,6.6095886-5.5952148,9.8259277c0.6363525,2.0111389-0.7457275,2.1300354-1.7446899,2.8383484
		c-4.6505737,3.2985535-4.7122192,5.7016602-0.3890381,9.2879333c2.2166748,1.8401184,4.2072754,3.9664917,6.4987793,5.7016296
		c4.0949707,3.1011353,6.1743164,8.8717651,12.2840576,9.3363647c0.2466431,0.019104,0.5270386,0.4697571,0.675293,0.7765808
		c3.1077271,6.4187622,8.3278809,11.4084167,11.7739868,17.6392822c4.0244751,7.276062,7.2158203,14.9147034,10.7676392,22.3970032
		c1.0283203,2.1660156,2.4669189,3.9488831-0.3413086,5.7669678c-0.8851929,0.5732422-0.4638672,1.5127563-0.2612915,2.31427
		c0.7105103,2.8178101,0.8704834,5.6899109,0.9284668,8.5803528c0.0719604,3.6039124,0.1416626,7.209259,0.3552856,10.8058167
		c0.0535278,0.9057617-0.0925293,2.4280701,1.6213379,2.1601563c1.2162476-0.1901245,2.3495483-0.6268311,2.2739258-2.2489624
		c-0.0440063-0.9585876,0.0308228-1.9223022,0.0308228-2.8838501c0.0029297-18.5083313,0.0021973-37.0166321,0.0021973-55.5249634
		c0.3134155,0,0.6260986,0,0.9395142,0c0-18.9891052-0.0087891-37.9781799,0.0139771-56.9665222
		C761.3269043,320.3935547,761.5859985,318.9307251,758.7211914,319.9208679z"/>
	<path d="M691.7151489,299.7808838c-17.7471924,5.9974365-35.5192871,11.9200134-53.3053589,17.8007507
		c-1.6397705,0.5424194-2.2592163,1.3608398-2.2592163,3.0834961c-0.0029907,9.8516541-0.1130371,19.7032776-0.1453857,29.5549011
		c-0.0021973,0.7574768-0.4638672,2.0030518,0.5879517,2.1939087c3.8240967,0.6943359,5.2568359,4.3877869,8.1231079,6.2792969
		c0.8234863-1.002655-0.888916-2.4375916,0.6268311-3.2134094c0.6818237-0.3486633,1.1200562,0.0513611,1.4107056,0.6546936
		c1.8482056,3.8343811,4.3907471,7.2202759,4.1969604,12.0073853c-0.3391113,8.3469238,5.4161377,14.4288025,9.0163574,21.5220947
		c1.2683105-4.9603271,6.8605957-7.7025146,5.1709595-14.0977783c-0.7597046-2.875061,1.9898682-6.7373047,5.1224976-9.020752
		c2.5814819-1.8812256,5.8484497-2.7098999,5.6708374-7.4580994c-0.1343384-3.5804138,0.7619019-3.9143677-3.5664673-4.3775024
		c1.083374,2.4016113-1.4642944,4.5088806-2.0705566,4.1646423c-3.1444702-1.7887268-3.517334,1.7659912-5.5211182,2.4170532
		c-0.123291-0.9681396-0.2319336-1.815155-0.3522949-2.7590942c-1.868042,0.8374939-3.9121704,2.6277161-4.1088867-1.2866821
		c-0.0469971-0.9248352-0.9549561-0.9057312-1.6213989-0.3009338c-0.8682861,0.7882996-1.2396851,0.3574524-1.3380737-0.5578308
		c-0.1915283-1.7806702-0.8499756-2.4845581-2.803833-1.8415833c-1.0341797,0.3405762-2.081604-0.3655396-2.3032837-1.687439
		c2.6504517-1.0342102,4.1338501-3.8079529,3.0490112-5.8403625c-1.0444336-1.9568176-1.2822876,1.3534546-2.371521,0.2972412
		c0.1460571-3.5495605,3.1091919-5.5724487,4.9918823-8.240509c-1.6984863-0.8029785-2.9741211,1.4584351-4.4934692,0.2260742
		c1.7542114-2.6724548,4.3840942-3.6288452,8.1604614-3.464447c-1.0524902-0.7941589-1.4026489-1.0892334-1.7835693-1.3365784
		c-0.4682617-0.3046265-1.140625-0.4249878-0.9967651-1.2206421c4.1096191-0.2627563,6.6073608-0.8572998,7.5014038-1.977356
		c0.7347412,1.4385986,1.4143677,2.2489319,3.4284668,2.5021667c2.7407227,0.3442383,5.6730347,0.6569214,8.3858643,1.6316528
		c3.8064575,1.3674316,7.1931152,5.5959473,6.5567017,8.4754028c-0.199646,0.9028015-1.0620728,1.7762451-0.0344849,2.571167
		c1.0569458,0.816925,2.6790771,0.8352966,3.3690186,0.0557861c2.1785278-2.466217,5.6906738-3.9136353,5.689209-8.1150208
		c-0.0037231-12.2539673,0.1981201-24.5079651,0.3816528-36.7612
		C694.1072388,299.8036499,693.8620605,299.0549622,691.7151489,299.7808838z"/>
	<path d="M690.7360229,431.2064209c-17.3075562,5.8447876-34.6334229,11.6374512-51.9827271,17.3588867
		c-1.9216309,0.6341858-2.6240234,1.5604858-2.590271,3.5892334c0.1123047,6.8525391,0.0425415,13.7080078,0.0425415,20.5620422
		c-0.0476685,0-0.0961304,0.0007324-0.1445923,0.0007324c0,6.8540039,0.0858765,13.7102051-0.0440063,20.5627441
		c-0.0484619,2.5293579,0.5108643,3.0563354,3.0203857,2.1902466c11.7012939-4.0384216,23.4561157-7.9219666,35.2183228-11.781311
		c1.8386841-0.6026001,2.4956055-1.2954712,2.5176392-3.4857178c0.0432739-4.3701782-0.1849976-8.6199951-1.5473022-12.7839355
		c-0.3486328-1.0650024-0.6378174-2.4390259,0.6774902-2.8016357c4.8399658-1.3358459,9.7650146-3.2911987,14.7415161-2.6093445
		c2.7348022,0.3750916,2.6306152-0.2179871,2.6437988-2.1704102c0.0609131-8.8981628,0.1020508-17.7985535,0.3427734-26.6930542
		C693.7028198,430.4871216,692.8161621,430.5039978,690.7360229,431.2064209z"/>
	<path d="M758.7909546,450.5903931c-0.7200317,2.7238464-2.3554077,4.6322327-4.453125,6.3556519
		c-1.6390381,1.3461304-3.0945435,0.6994934-4.666748,0.0139465c-0.7824097-0.3405762-1.4121704,0.1585388-1.8892822,0.7068176
		c-3.6560059,4.201355-8.5524292,6.8951111-11.1742554,12.5534668c-2.7774658,5.9945068-4.9163208,11.2909851-2.2335815,17.6377869
		c0.0917969,0.2165527,0.1108398,0.466095,0.147583,0.703186c0.2040405,1.3123779-0.1754761,2.3744507-1.359375,3.0688171
		c-1.2925415,0.7574768-2.300354,0.2216492-3.1752319-0.7538147c-2.2438354-2.5014343-4.5015869-4.9918823-6.6969604-7.5358887
		c-0.8764038-1.0151062-1.3563843-2.2232666-1.3563843-3.6303101c0.0007324-9.0904846-4.2483521-13.0298157-13.1868896-12.2488708
		c-0.8353271,0.0726624-1.6573486,0.3354492-2.4904785,0.3670044c-2.0984497,0.0792847-2.8118896,1.045929-2.8001709,3.188446
		c0.0661011,12.8522034,0.0286255,25.7051086-0.0601807,38.557312c-0.0146484,2.1256409,0.4088745,2.7253113,2.6306152,1.9656372
		c12.2694092-4.1940308,24.6327515-8.1157532,36.8662109-12.4088745
		c8.9414673-3.137085,18.6184082-11.6821899,17.7728882-25.1391907c-0.4962158-7.889679,0.0990601-15.8475952,0.161438-23.7747192
		c0.0095215-1.1494141,0.3757935-2.3773804-0.5490112-3.6743469
		C758.463562,447.6316833,759.1293335,449.3103333,758.7909546,450.5903931z"/>
	<path d="M705.4143677,457.5405579c3.9385986-1.4408264,7.927124-2.7605286,11.9449463-3.9664917
		c1.8863525-0.565155,2.5087891-1.4430237,1.9179688-3.3704834c-1.0187988-3.3235168-2.0361328-6.6602173-2.7752686-10.052002
		c-0.6928711-3.1781921-1.8951416-5.261261-5.6678467-4.6168213c-2.5109863,0.4286499-2.5-1.0936279-1.7506104-2.8104248
		c1.4907837-3.4145508,1.0621338-6.6484985-0.30896-10.0498352c-2.333374-5.7911682-4.272583-11.7108154-3.583374-18.1479187
		c0.1798096-1.6756897-0.4139404-3.297821-1.5259399-5.3456726c-0.2664795,0.8631897-0.4440918,1.1736755-0.4455566,1.4841309
		c-0.0910034,18.354187-0.147522,36.708374-0.2722778,55.062561
		C702.9342041,457.7255249,703.4164429,458.270874,705.4143677,457.5405579z"/>
	<path d="M745.7714233,440.0238647c-2.2026978-3.2816772-4.1455688-6.7387695-6.1919556-10.1253967
		c-0.456543-0.756012-0.9747314-1.5883789-1.8988647-0.7075806c-1.1809692,1.125946-2.9564819,1.8702087-3.0908203,3.7888489
		c-0.3413086,4.8663635-0.5982056,9.7386169-0.9152832,15.0629883c3.8879395-1.297699,7.328186-2.3069458,10.6553345-3.6075745
		C746.3218994,443.6563721,747.3150024,442.3234558,745.7714233,440.0238647z"/>
	<path d="M733.2921143,461.4776917c2.1828613-2.0603027,3.9429932-4.2674255,5.032959-7.1417236
		C732.2821045,455.0325317,731.4130859,456.2663574,733.2921143,461.4776917z"/>
	<path d="M443.6158142,396.8820496c-7.4096375,0.242218-14.832489,0.076355-22.7559204,0.076355
		c0.731781-1.601593,1.1868591-2.6827393,1.7116699-3.7294312c4.0369568-8.0548096,8.0085754-16.1448669,12.1879272-24.1255493
		c1.0716248-2.0470886,1.0187683-3.6317749,0.0814819-5.6899109c-7.3215637-16.0722046-14.5132141-32.2038574-21.7694702-48.3061523
		c-0.4117737-0.9138184-0.5270081-2.0551758-1.9076233-2.8097229
		c-9.2915955,22.6186829-18.5406189,45.1309204-27.7889099,67.6438904
		c-0.2745361-0.0322876-0.5483093-0.0653076-0.8228149-0.0983276c0-0.9138489,0-1.8283997,0-2.7429504
		c0-19.4735107-0.0411072-38.9477539,0.052124-58.4220276c0.0117493-2.5322571-0.4191284-3.5899353-3.3022461-3.5385742
		c-10.3345947,0.1842346-20.6757813,0.1380005-31.0126038,0.024231c-2.5425415-0.0278931-2.8735657,0.4455261-2.1388245,2.9770508
		c3.09375,10.6663818,4.8751526,21.8222961-2.8596497,30.9744568c-6.8708801,8.1282043-7.9065552,16.9184875-7.1747437,26.6600342
		c0.2157898,2.8684082,0.03302,5.7677002,0.03302,8.6522827c0,31.6152039,0.0359497,63.2311401-0.0587158,94.846344
		c-0.0088196,2.8684387,0.5592957,3.9312439,3.7007751,3.887207c12.9798889-0.184967,25.9664001-0.2069702,38.9455872,0.0110168
		c3.3418579,0.0557861,4.1308899-1.0356445,3.8695984-4.0765991c-0.2466125-2.8640137-0.0528564-5.7654724-0.0528564-8.6508179
		c0-17.1900635,0.0616455-34.3808594-0.0631104-51.5694885c-0.0198364-2.7304382,0.756012-3.587738,3.4468079-3.4013062
		c3.2295837,0.2246094,6.4877625,0.0308228,9.7327271,0.0587158c5.4755859,0.0455017,4.8759155-0.6429749,4.8795776,4.719574
		c0.0190735,26.5660706,0.0543213,53.1328735-0.0528564,79.6989746c-0.0124817,3.1011047,0.5226135,4.3246765,4.0376892,4.2608032
		c13.0988159-0.237793,26.2056885-0.2084351,39.3059692-0.0132141c3.2031555,0.0477295,3.9797058-0.8279419,3.968689-3.9804382
		c-0.1174316-33.0574951-0.1225586-66.1157227,0.0051575-99.1732178
		C447.8274536,397.7012024,446.9070435,396.7749023,443.6158142,396.8820496z"/>
	<path d="M271.2365112,398.8102417c0.0029297-1.9993896-0.4205933-3.6985779-1.5223083-5.4014282
		c-10.3808289-16.0435791-20.737442-32.103302-30.9744263-48.2393799c-1.3483429-2.1256409-2.8449554-2.7421875-5.2465668-2.7333679
		c-23.2021942,0.080719-46.4051361,0.1409302-69.6058655-0.0469971c-3.6567383-0.0293579-4.2630157,1.1281433-4.2402649,4.453125
		c0.1475372,21.8788147,0.0756073,43.7583618,0.0756073,65.6386414c0,22.360321,0.057251,44.7213745-0.0690002,67.0809326
		c-0.0161438,2.913208,0.8477631,3.6105042,3.6405945,3.5826111c13.4628754-0.1350403,26.9286804-0.142395,40.3915405,0.0051575
		c2.837616,0.0308228,3.647934-0.7354736,3.6112366-3.5921631c-0.157074-12.1402283-0.0014648-24.2833862-0.1203766-36.4250488
		c-0.0249481-2.4823608,0.605545-3.4248047,3.1936035-3.2618713c3.3528748,0.2113953,6.7402344,0.2246094,10.0916443-0.0021973
		c2.7810974-0.1886292,3.7022552,0.6275635,3.6626129,3.5422363c-0.163681,12.0198364,0.0058746,24.0433655-0.1247711,36.0639343
		c-0.0293579,2.7399902,0.5901184,3.7206116,3.5583801,3.6824341c13.3417664-0.1680908,26.6886597-0.1798401,40.0304108,0.005127
		c3.1840515,0.0440369,3.6868591-1.0987854,3.6773071-3.9261169
		C271.1697083,452.4275818,271.1946716,425.6185608,271.2365112,398.8102417z M208.7547607,409.6791992
		c-1.3387909,0.0029297-1.5230255-0.8264771-1.5222931-1.8959045c0.0095367-9.9154968,0.0058746-19.8316956,0.0058746-29.7471924
		c0.275238-0.0389099,0.5504913-0.0778198,0.8257446-0.1166992c5.4975891,10.3587952,10.9959106,20.7176208,16.8531647,31.7546692
		C219.1385345,409.6740723,213.9462891,409.6659851,208.7547607,409.6791992z"/>
	<path d="M325.5158997,371.3274231c-13.8262024,0.1218262-27.6546021,0.1269836-41.4800415-0.0029297
		c-2.6533813-0.0249634-3.4637146,0.6268311-3.4431763,3.3748779c0.1269836,17.4330444,0.0646057,34.8675232,0.0646057,52.3013
		c-0.0007324,17.5541077,0.0506287,35.1089783-0.0565186,52.662384c-0.0154114,2.6020203,0.5365601,3.5202332,3.3499451,3.488678
		c13.8254395-0.151947,27.6538391-0.124054,41.4800415-0.0169067c2.4816284,0.019104,3.2802124-0.6598511,3.2750549-3.2104492
		c-0.075592-35.1082764-0.0733948-70.2165527-0.0036621-105.3255615
		C328.706543,372.145813,328.0958862,371.3053894,325.5158997,371.3274231z"/>
	<path d="M327.9197083,298.9815674c-16.8575745-12.6885071-41.1754456-9.5286865-53.7208252,7.2099915
		c-8.62146,11.5045776-10.3375244,24.2385864-4.5390015,37.3998108
		c5.5078735,12.5013123,15.2875977,20.0247498,28.9867859,22.0901794c0.6811523,0.214325,1.3556824,0.3405762,2.015564,0.261322
		c10.3999023,1.3622742,19.7282104-1.3527527,27.9870605-8.141449c2.7759705-1.77771,4.8862-4.2409973,6.8158569-6.8422546
		C347.7286682,334.4237976,344.3655396,311.360321,327.9197083,298.9815674z M337.3852539,315.1873474
		c-7.8852539-4.6615601-15.1304932-9.9763794-18.867218-18.9090576
		C327.6158447,299.755188,333.8342285,306.13797,337.3852539,315.1873474z M274.589386,340.0704041
		c-2.3428955-7.5131531-2.3612671-14.7495728,1.99646-21.8149719c3.0269775-4.9074402,7.4294434-9.105896,7.9417725-15.4849854
		c0.2003784-2.495575,4.329071-4.2945862,6.3049927-3.507019c2.2379456,0.8917847,3.0335693,3.8982239,1.7901917,6.8884888
		c-0.4609375,1.1098022-1.0591431,2.1535339-1.6771545,3.1870117c-2.5293274,4.2351074-5.5130005,8.1539001-8.4350281,12.1145325
		c-2.9418335,3.9892273-4.4274292,8.5267639-4.7298584,13.4034119c-0.2187195,3.5150757,0.5776672,6.9406128,2.0625305,10.1415405
		c0.4947205,1.065033,1.6514893,2.1109619,2.946228,2.8486328
		C278.9191895,346.6462402,275.8944092,344.2548828,274.589386,340.0704041z M286.8264771,359.8771667
		c-3.4820557-1.7674561-6.1347046-4.111084-8.7352295-7.1138611
		C285.9067993,353.1486511,287.1633911,354.1439514,286.8264771,359.8771667z M334.2401123,332.709198
		c-2.70401,0.3361816-5.2157288-0.5079041-7.7303772-1.3681641c-7.4573669-2.5491333-14.4956055-1.7791748-20.7638855,3.1473694
		c-4.9911499,3.9217224-8.5054932,9.0956116-11.4165039,14.6798096c-0.8396912,1.6125793-1.6925964,3.3653564-0.1321106,4.9999695
		c1.4694519,1.5384216,3.1246033,0.7060852,4.6630249,0.014679c3.3815002-1.5201111,6.8129272-1.7953491,10.0432129,0.13797
		c4.8039856,2.8757935,9.9588013,3.289032,15.308136,2.6299133c0.1365051-0.0169067,0.2642212-0.0264282,0.3963318-0.0411072
		c-0.5658875,0.2502747-1.1127319,0.5636902-1.6257935,0.9013367c-5.3471069,3.5143433-11.3218079,4.8648987-17.5673218,5.3838196
		c-1.1758728,0.0983582-2.3685913,0.1585388-3.1958008,1.0305176c-0.0550537-0.7325134-0.4954529-1.3630066-1.0943909-1.9656067
		c-1.8636169-1.8746338-3.6868286-3.763916-6.1552429-4.9148254c-1.9825134-0.9248352-3.9826355-2.1447144-4.6439819-4.3048401
		c-0.7192993-2.348053-2.1351624-3.5077515-4.02005-4.2124023c0.132843-0.0109863,0.2774353-0.0029297,0.399292-0.0315552
		c2.7796021-0.6547241,2.02948-3.1502686,2.3164673-5.0498657c0.5035095-3.3330383,1.2294312-6.5655518,2.6034546-9.6974792
		c3.4769287-7.9234314,9.1088562-13.7983093,16.705658-17.7214966c3.0438538-1.5714722,4.4487-3.1319275,4.0912476-5.6898804
		c0.7376709,3.3800354,2.6350403,5.3662109,5.4770508,6.8782349c5.318512,2.8295288,10.6839905,5.5555725,16.7651062,6.3013
		c2.67099,0.3273621,4.2630005,1.4511108,4.2028198,4.3210144
		C338.8136292,330.7134705,337.2215881,332.3392639,334.2401123,332.709198z"/>
</g>
</svg>
